<svg width="186" height="20" viewBox="0 0 186 20" fill="none" xmlns="http://www.w3.org/2000/svg">
<g clip-path="url(#clip0_4_42)">
<path d="M0 0.277778H4.35762L6.30051 14.1944H6.35602L8.2989 0.277778H12.6565V19.7222H9.76995V5H9.71444L7.49399 19.7222H4.94048L2.72004 5H2.66453V19.7222H0V0.277778Z" fill="white"/>
<path d="M17.2941 0.277778H21.4297L24.5938 19.7222H21.5407L20.9856 15.8611V15.9167H17.5161L16.961 19.7222H14.13L17.2941 0.277778ZM20.6247 13.2778L19.2647 3.66667H19.2092L17.8769 13.2778H20.6247Z" fill="white"/>
<path d="M27.1881 3.05556H23.9962V0.277778H33.4331V3.05556H30.2412V19.7222H27.1881V3.05556Z" fill="white"/>
<path d="M34.9113 0.277778H37.9644V8.19444H41.2395V0.277778H44.2926V19.7222H41.2395V10.9722H37.9644V19.7222H34.9113V0.277778Z" fill="white"/>
<path d="M46.5664 0.277778H54.8931V3.05556H49.6195V8.19444H53.8106V10.9722H49.6195V16.9444H54.8931V19.7222H46.5664V0.277778Z" fill="white"/>
<path d="M61.0904 20C59.6101 20 58.4813 19.5833 57.7042 18.75C56.927 17.8981 56.5384 16.6852 56.5384 15.1111V0.277778H59.5916V15.3333C59.5916 16 59.7211 16.4815 59.9801 16.7778C60.2577 17.0741 60.6463 17.2222 61.1459 17.2222C61.6455 17.2222 62.0248 17.0741 62.2838 16.7778C62.5614 16.4815 62.7002 16 62.7002 15.3333V0.277778H65.6423V15.1111C65.6423 16.6852 65.2537 17.8981 64.4765 18.75C63.6994 19.5833 62.5707 20 61.0904 20Z" fill="white"/>
<path d="M71.7858 20C70.3055 20 69.186 19.5833 68.4274 18.75C67.6687 17.8981 67.2894 16.6852 67.2894 15.1111V14H70.176V15.3333C70.176 16.5926 70.7033 17.2222 71.758 17.2222C72.2761 17.2222 72.6647 17.0741 72.9238 16.7778C73.2013 16.463 73.3401 15.963 73.3401 15.2778C73.3401 14.463 73.1551 13.75 72.785 13.1389C72.4149 12.5093 71.7303 11.7593 70.7311 10.8889C69.4728 9.77778 68.5939 8.77778 68.0943 7.88889C67.5947 6.98148 67.3449 5.96296 67.3449 4.83333C67.3449 3.2963 67.7335 2.11111 68.5106 1.27778C69.2878 0.425926 70.4165 0 71.8968 0C73.3586 0 74.4596 0.425926 75.1997 1.27778C75.9584 2.11111 76.3377 3.31482 76.3377 4.88889V5.69445H73.4511V4.69445C73.4511 4.02778 73.3216 3.5463 73.0625 3.25C72.8035 2.93519 72.4242 2.77778 71.9246 2.77778C70.9068 2.77778 70.398 3.39815 70.398 4.63889C70.398 5.34259 70.583 6 70.9531 6.61111C71.3417 7.22222 72.0356 7.96296 73.0348 8.83333C74.3115 9.94444 75.1905 10.9537 75.6715 11.8611C76.1526 12.7685 76.3932 13.8333 76.3932 15.0556C76.3932 16.6481 75.9954 17.8704 75.1997 18.7222C74.4225 19.5741 73.2846 20 71.7858 20Z" fill="white"/>
<path d="M86.8911 20C85.4293 20 84.3098 19.5833 83.5327 18.75C82.774 17.9167 82.3947 16.7407 82.3947 15.2222V4.77778C82.3947 3.25926 82.774 2.08333 83.5327 1.25C84.3098 0.416667 85.4293 0 86.8911 0C88.3529 0 89.4631 0.416667 90.2217 1.25C90.9989 2.08333 91.3875 3.25926 91.3875 4.77778V6.83333H88.5009V4.58333C88.5009 3.37963 87.992 2.77778 86.9743 2.77778C85.9566 2.77778 85.4478 3.37963 85.4478 4.58333V15.4444C85.4478 16.6296 85.9566 17.2222 86.9743 17.2222C87.992 17.2222 88.5009 16.6296 88.5009 15.4444V12.4722H91.3875V15.2222C91.3875 16.7407 90.9989 17.9167 90.2217 18.75C89.4631 19.5833 88.3529 20 86.8911 20Z" fill="white"/>
<path d="M95.5733 0.277778H99.7089L102.873 19.7222H99.8199L99.2648 15.8611V15.9167H95.7954L95.2403 19.7222H92.4092L95.5733 0.277778ZM98.904 13.2778L97.544 3.66667H97.4885L96.1562 13.2778H98.904Z" fill="white"/>
<path d="M102.763 0.277778H105.844L107.843 15.3611H107.898L109.896 0.277778H112.7L109.758 19.7222H105.705L102.763 0.277778Z" fill="white"/>
<path d="M115.739 0.277778H119.875L123.039 19.7222H119.986L119.431 15.8611V15.9167H115.962L115.406 19.7222H112.575L115.739 0.277778ZM119.07 13.2778L117.71 3.66667H117.655L116.322 13.2778H119.07Z" fill="white"/>
<path d="M124.52 0.277778H127.574V16.9444H132.597V19.7222H124.52V0.277778Z" fill="white"/>
<path d="M138.255 20C136.793 20 135.674 19.5833 134.897 18.75C134.138 17.9167 133.759 16.7407 133.759 15.2222V4.77778C133.759 3.25926 134.138 2.08333 134.897 1.25C135.674 0.416667 136.793 0 138.255 0C139.717 0 140.827 0.416667 141.586 1.25C142.363 2.08333 142.751 3.25926 142.751 4.77778V6.83333H139.865V4.58333C139.865 3.37963 139.356 2.77778 138.338 2.77778C137.321 2.77778 136.812 3.37963 136.812 4.58333V15.4444C136.812 16.6296 137.321 17.2222 138.338 17.2222C139.356 17.2222 139.865 16.6296 139.865 15.4444V12.4722H142.751V15.2222C142.751 16.7407 142.363 17.9167 141.586 18.75C140.827 19.5833 139.717 20 138.255 20Z" fill="white"/>
<path d="M146.937 0.277778H151.073L154.237 19.7222H151.184L150.629 15.8611V15.9167H147.159L146.604 19.7222H143.773L146.937 0.277778ZM150.268 13.2778L148.908 3.66667H148.852L147.52 13.2778H150.268Z" fill="white"/>
<path d="M155.718 0.277778H159.549L162.518 11.9167H162.574V0.277778H165.294V19.7222H162.158L158.494 5.52778H158.438V19.7222H155.718V0.277778Z" fill="white"/>
<path d="M169.95 3.05556H166.758V0.277778H176.195V3.05556H173.003V19.7222H169.95V3.05556Z" fill="white"/>
<path d="M177.673 0.277778H186V3.05556H180.726V8.19444H184.918V10.9722H180.726V16.9444H186V19.7222H177.673V0.277778Z" fill="white"/>
</g>
<defs>
<clipPath id="clip0_4_42">
<rect width="186" height="20" fill="white"/>
</clipPath>
</defs>
</svg>
